<svg id="图层_1" data-name="图层 1" xmlns="http://www.w3.org/2000/svg" viewBox="0 0 308.24 184.06"><defs><style>.cls-1{fill:#dfe6d4;}.cls-2{fill:none;stroke:#a2a590;stroke-width:4px;}</style></defs><title>clip</title><path class="cls-1" d="M440.39,676.54c1.21,7.23,11.35,29.79,22.18,29.16,0,0,20.24-.14,37,0,37.8-.84,53.69,64,8.53,67.82l-249.23-2.36c-45.16-3.84-29.27-68.67,8.53-67.82,16.73-.16,37,0,37,0,10.83.63,21-21.93,22.18-29.16h0c1.95-13.55.42-26.55,1.71-36.73,0,0,3.57-40.37,50.73-43.89l7.31-.09c48.34,2.91,52,44,52,44,1.37,10.77-.43,24.7,2.08,39.1Zm-30.45-32.15a27.34,27.34,0,1,0-27.34,27.33A27.34,27.34,0,0,0,409.94,644.39Z" transform="translate(-229.34 -591.47)"/><path class="cls-2" d="M355.26,644.39a27.34,27.34,0,1,1,27.34,27.33A27.34,27.34,0,0,1,355.26,644.39Z" transform="translate(-229.34 -591.47)"/><path class="cls-2" d="M380.23,593.47c-.42,0-.83,0-1.24.09-47.16,3.52-50.73,43.89-50.73,43.89-1.29,10.18.24,23.18-1.71,36.73-3,20.82-14.18,43-56.45,58.14" transform="translate(-229.34 -591.47)"/><path class="cls-2" d="M496.44,732.32c-40.67-14.62-52.58-35.65-56.08-55.77-2.51-14.4-.71-28.33-2.08-39.1,0,0-3.64-41.07-52-44l-7.31.09" transform="translate(-229.34 -591.47)"/><path class="cls-2" d="M326.64,673a7.44,7.44,0,0,1-.12,1.21c-1.21,7.23-11.35,29.79-22.18,29.16,0,0-20.24-.14-37,0-37.8-.85-53.69,64-8.53,67.82l249.23,2.36c45.16-3.83,29.27-68.66-8.53-67.82-16.73-.15-37,0-37,0-10.83.63-21-21.93-22.18-29.16a7.44,7.44,0,0,1-.12-1.21" transform="translate(-229.34 -591.47)"/></svg>