<svg width="3466" height="1739" xmlns="http://www.w3.org/2000/svg" xmlns:xlink="http://www.w3.org/1999/xlink" xml:space="preserve" overflow="hidden"><g transform="translate(-370 -413)"><path d="M451.168 457.5 1382.83 457.5C1415.23 457.5 1441.5 483.767 1441.5 516.168L1441.5 809.5 392.5 809.5 392.5 516.168C392.5 483.767 418.767 457.5 451.168 457.5Z" stroke="#70AF55" stroke-width="4.58333" stroke-miterlimit="8" fill="#70AF55" fill-rule="evenodd"/><text fill="#FFFFFF" font-family="Book Antiqua,Book Antiqua_MSFontService,sans-serif" font-weight="400" font-size="105" transform="matrix(1 0 0 1 635.427 677)">Easy Access</text><rect x="392.5" y="809.5" width="1049" height="1299" stroke="#70AF55" stroke-width="4.58333" stroke-miterlimit="8" stroke-opacity="0.901961" fill="#70AF55" fill-opacity="0.301961"/><text font-family="Book Antiqua,Book Antiqua_MSFontService,sans-serif" font-weight="400" font-size="105" transform="matrix(1 0 0 1 436.286 954)">•</text><text font-family="Book Antiqua,Book Antiqua_MSFontService,sans-serif" font-weight="400" font-size="105" transform="matrix(1 0 0 1 518.786 954)">Simply upload an </text><text font-family="Book Antiqua,Book Antiqua_MSFontService,sans-serif" font-weight="400" font-size="105" transform="matrix(1 0 0 1 518.786 1085)">X</text><text font-family="Book Antiqua,Book Antiqua_MSFontService,sans-serif" font-weight="400" font-size="105" transform="matrix(1 0 0 1 589.094 1085)">-</text><text font-family="Book Antiqua,Book Antiqua_MSFontService,sans-serif" font-weight="400" font-size="105" transform="matrix(1 0 0 1 624.203 1085)">ray image taken </text><text font-family="Book Antiqua,Book Antiqua_MSFontService,sans-serif" font-weight="400" font-size="105" transform="matrix(1 0 0 1 518.786 1216)">at your nearest </text><text font-family="Book Antiqua,Book Antiqua_MSFontService,sans-serif" font-weight="400" font-size="105" transform="matrix(1 0 0 1 518.786 1347)">community </text><text font-family="Book Antiqua,Book Antiqua_MSFontService,sans-serif" font-weight="400" font-size="105" transform="matrix(1 0 0 1 518.786 1478)">hospital, log into </text><text font-family="Book Antiqua,Book Antiqua_MSFontService,sans-serif" font-weight="400" font-size="105" transform="matrix(1 0 0 1 518.786 1609)">our system, and </text><text font-family="Book Antiqua,Book Antiqua_MSFontService,sans-serif" font-weight="400" font-size="105" transform="matrix(1 0 0 1 518.786 1740)">enjoy our services </text><text font-family="Book Antiqua,Book Antiqua_MSFontService,sans-serif" font-weight="400" font-size="105" transform="matrix(1 0 0 1 518.786 1871)">from the comfort </text><text font-family="Book Antiqua,Book Antiqua_MSFontService,sans-serif" font-weight="400" font-size="105" transform="matrix(1 0 0 1 518.786 2002)">of your home!</text><path d="M1647.17 457.5 2578.83 457.5C2611.23 457.5 2637.5 483.767 2637.5 516.168L2637.5 809.501 1588.5 809.501 1588.5 516.168C1588.5 483.767 1614.77 457.5 1647.17 457.5Z" stroke="#B2CB59" stroke-width="4.58333" stroke-miterlimit="8" fill="#B2CB59" fill-rule="evenodd"/><text fill="#FFFFFF" font-family="Book Antiqua,Book Antiqua_MSFontService,sans-serif" font-weight="400" font-size="105" transform="matrix(1 0 0 1 1858.72 612)">Cheap and </text><text fill="#FFFFFF" font-family="Book Antiqua,Book Antiqua_MSFontService,sans-serif" font-weight="400" font-size="105" transform="matrix(1 0 0 1 1917.94 743)">Efficient</text><rect x="1588.5" y="809.5" width="1049" height="1299" stroke="#B2CB59" stroke-width="4.58333" stroke-miterlimit="8" stroke-opacity="0.901961" fill="#B2CB59" fill-opacity="0.301961"/><text font-family="Book Antiqua,Book Antiqua_MSFontService,sans-serif" font-weight="400" font-size="105" transform="matrix(1 0 0 1 1632.2 954)">•</text><text font-family="Book Antiqua,Book Antiqua_MSFontService,sans-serif" font-weight="400" font-size="105" transform="matrix(1 0 0 1 1714.7 954)">No longer pay for </text><text font-family="Book Antiqua,Book Antiqua_MSFontService,sans-serif" font-weight="400" font-size="105" transform="matrix(1 0 0 1 1714.7 1085)">expensive bill in </text><text font-family="Book Antiqua,Book Antiqua_MSFontService,sans-serif" font-weight="400" font-size="105" transform="matrix(1 0 0 1 1714.7 1216)">such service and </text><text font-family="Book Antiqua,Book Antiqua_MSFontService,sans-serif" font-weight="400" font-size="105" transform="matrix(1 0 0 1 1714.7 1347)">say goodbye to </text><text font-family="Book Antiqua,Book Antiqua_MSFontService,sans-serif" font-weight="400" font-size="105" transform="matrix(1 0 0 1 1714.7 1478)">bothering </text><text font-family="Book Antiqua,Book Antiqua_MSFontService,sans-serif" font-weight="400" font-size="105" transform="matrix(1 0 0 1 1714.7 1609)">reservation and </text><text font-family="Book Antiqua,Book Antiqua_MSFontService,sans-serif" font-weight="400" font-size="105" transform="matrix(1 0 0 1 1714.7 1740)">quene</text><text font-family="Book Antiqua,Book Antiqua_MSFontService,sans-serif" font-weight="400" font-size="105" transform="matrix(1 0 0 1 1999.62 1740)">!</text><path d="M2843.17 457.5 3774.83 457.5C3807.23 457.5 3833.5 483.767 3833.5 516.168L3833.5 809.501 2784.5 809.501 2784.5 516.168C2784.5 483.767 2810.77 457.5 2843.17 457.5Z" stroke="#EEC754" stroke-width="4.58333" stroke-miterlimit="8" fill="#EEC754" fill-rule="evenodd"/><text fill="#FFFFFF" font-family="Book Antiqua,Book Antiqua_MSFontService,sans-serif" font-weight="400" font-size="105" transform="matrix(1 0 0 1 3022.97 677)">Professional</text><rect x="2784.5" y="809.5" width="1049" height="1299" stroke="#EEC754" stroke-width="4.58333" stroke-miterlimit="8" stroke-opacity="0.901961" fill="#EEC754" fill-opacity="0.301961"/><text font-family="Book Antiqua,Book Antiqua_MSFontService,sans-serif" font-weight="400" font-size="105" transform="matrix(1 0 0 1 2828.11 954)">•</text><text font-family="Book Antiqua,Book Antiqua_MSFontService,sans-serif" font-weight="400" font-size="105" transform="matrix(1 0 0 1 2910.61 954)">Experience the </text><text font-family="Book Antiqua,Book Antiqua_MSFontService,sans-serif" font-weight="400" font-size="105" transform="matrix(1 0 0 1 2910.61 1085)">precision and </text><text font-family="Book Antiqua,Book Antiqua_MSFontService,sans-serif" font-weight="400" font-size="105" transform="matrix(1 0 0 1 2910.61 1216)">efficiency of our </text><text font-family="Book Antiqua,Book Antiqua_MSFontService,sans-serif" font-weight="400" font-size="105" transform="matrix(1 0 0 1 2910.61 1347)">AI assistant, </text><text font-family="Book Antiqua,Book Antiqua_MSFontService,sans-serif" font-weight="400" font-size="105" transform="matrix(1 0 0 1 2910.61 1478)">offering expert </text><text font-family="Book Antiqua,Book Antiqua_MSFontService,sans-serif" font-weight="400" font-size="105" transform="matrix(1 0 0 1 2910.61 1609)">services at par </text><text font-family="Book Antiqua,Book Antiqua_MSFontService,sans-serif" font-weight="400" font-size="105" transform="matrix(1 0 0 1 2910.61 1740)">with human </text><text font-family="Book Antiqua,Book Antiqua_MSFontService,sans-serif" font-weight="400" font-size="105" transform="matrix(1 0 0 1 2910.61 1871)">professionals!</text></g></svg>