<svg width="846" height="333" xmlns="http://www.w3.org/2000/svg" xmlns:xlink="http://www.w3.org/1999/xlink" xml:space="preserve" overflow="hidden"><defs><filter id="fx0" x="-10%" y="-10%" width="120%" height="120%" filterUnits="userSpaceOnUse" primitiveUnits="userSpaceOnUse"><feComponentTransfer color-interpolation-filters="sRGB"><feFuncR type="discrete" tableValues="0.498039 0.498039"/><feFuncG type="discrete" tableValues="0.498039 0.498039"/><feFuncB type="discrete" tableValues="0.498039 0.498039"/><feFuncA type="linear" slope="1" intercept="0"/></feComponentTransfer><feGaussianBlur stdDeviation="1.25889 1.25889"/></filter><clipPath id="clip1"><rect x="1" y="1" width="761" height="187"/></clipPath></defs><g transform="translate(-1777 -1071)"><g clip-path="url(#clip1)" filter="url(#fx0)" transform="translate(1826 1159)"><g><path d="M734.721 135.463C741.421 135.463 746.891 137.643 751.129 142.002 755.367 146.362 757.486 151.932 757.486 158.713 757.486 165.495 755.387 171.125 751.19 175.606 746.992 180.086 741.502 182.327 734.721 182.327 727.859 182.327 722.349 180.107 718.191 175.667 714.034 171.226 711.955 165.575 711.955 158.713 711.955 151.932 714.054 146.362 718.252 142.002 722.45 137.643 727.94 135.463 734.721 135.463ZM245.51 95.5024C239.132 95.5024 233.885 98.0051 229.768 103.01 225.893 107.693 223.955 113.263 223.955 119.721 223.955 126.26 225.893 131.871 229.768 136.553 233.885 141.558 239.132 144.061 245.51 144.061 251.807 144.061 257.014 141.558 261.131 136.553 264.925 131.871 266.822 126.26 266.822 119.721 266.822 113.344 264.845 107.713 260.889 102.829 256.933 97.9445 251.807 95.5024 245.51 95.5024ZM635.545 87.2681C630.459 87.2681 626.261 89.4074 622.951 93.686 619.883 97.6418 618.35 102.284 618.35 107.612 618.35 109.792 619.48 110.881 621.74 110.881 627.714 110.881 636.998 109.953 649.592 108.096 652.256 107.693 653.588 107.047 653.588 106.159 653.588 101.153 651.812 96.7537 648.26 92.9595 644.708 89.1652 640.469 87.2681 635.545 87.2681ZM416.955 64.0181C419.216 64.0181 422.667 64.2603 427.309 64.7446 431.951 65.229 435.442 65.4712 437.783 65.4712 440.124 65.4712 443.636 65.2694 448.318 64.8657 453.001 64.4621 456.512 64.2603 458.854 64.2603 460.791 64.2603 461.76 65.0676 461.76 66.6821 461.76 67.0051 461.679 67.772 461.518 68.9829 459.742 84.7251 458.854 102.97 458.854 123.717 458.854 129.611 458.975 138.39 459.217 150.055 459.459 161.721 459.58 170.459 459.58 176.272 459.58 177.967 458.571 178.976 456.553 179.299 453.808 179.784 447.632 180.026 438.025 180.026 428.338 180.026 422.122 179.784 419.377 179.299 417.601 178.976 416.511 178.452 416.108 177.725 415.946 177.402 415.865 176.191 415.865 174.092 415.865 168.522 415.986 160.146 416.229 148.965 416.471 137.784 416.592 129.368 416.592 123.717 416.592 100.79 415.704 82.5454 413.928 68.9829 413.766 67.6912 413.686 66.8436 413.686 66.4399 413.686 64.8254 414.775 64.0181 416.955 64.0181ZM245.268 58.0845C263.512 58.0845 278.286 63.7961 289.588 75.2192 300.89 86.6424 306.541 101.476 306.541 119.721 306.541 138.127 300.91 153.062 289.649 164.526 278.387 175.989 263.593 181.721 245.268 181.721 227.507 181.721 212.895 176.07 201.432 164.768 189.968 153.466 184.236 138.935 184.236 121.174 184.236 102.445 189.726 87.2479 200.705 75.5825 211.684 63.9172 226.539 58.0845 245.268 58.0845ZM537.51 56.9946C549.538 56.9946 560.114 59.578 569.236 64.7446 571.335 65.8748 572.385 66.9647 572.385 68.0142 572.385 69.0637 571.174 73.8267 568.752 82.3032 566.492 90.4569 565.018 95.3814 564.332 97.0767 563.646 98.772 562.94 99.6196 562.213 99.6196 562.132 99.6196 559.69 98.9738 554.887 97.6821 550.083 96.3905 546.188 95.7446 543.201 95.7446 536.016 95.7446 530.285 97.9041 526.006 102.223 521.727 106.542 519.588 112.294 519.588 119.479 519.588 126.906 521.929 132.739 526.611 136.977 531.294 141.215 537.389 143.334 544.897 143.334 548.449 143.334 552.445 142.426 556.885 140.61 561.325 138.793 563.424 137.885 563.182 137.885 564.554 137.885 566.33 143.012 568.51 153.264 570.367 162.629 571.295 168.845 571.295 171.913 571.295 174.98 566.29 177.604 556.279 179.784 548.529 181.479 542.273 182.327 537.51 182.327 519.749 182.327 505.097 176.353 493.553 164.405 482.009 152.457 476.236 137.562 476.236 119.721 476.236 102.042 482.029 87.1672 493.613 75.0982 505.198 63.0291 519.83 56.9946 537.51 56.9946ZM640.268 56.2681C655.768 56.2681 668.926 61.9191 679.744 73.2212 690.562 84.5233 695.971 97.9647 695.971 113.545 695.971 121.699 693.347 126.341 688.1 127.471 687.212 127.633 678.856 128.521 663.033 130.135 653.507 131.185 639.299 132.436 620.408 133.889 621.539 139.137 624.969 143.133 630.701 145.877 635.383 148.138 640.712 149.268 646.686 149.268 653.871 149.268 661.096 147.331 668.361 143.456 671.429 141.518 674.497 139.581 677.565 137.643 679.26 138.45 682.106 142.568 686.102 149.995 690.098 157.422 692.096 162.144 692.096 164.163 692.096 164.728 691.49 165.656 690.279 166.948 680.43 177.523 665.132 182.811 644.385 182.811 625.171 182.811 609.671 177.2 597.885 165.979 585.775 154.596 579.721 139.379 579.721 120.327 579.721 101.759 585.13 86.5415 595.947 74.6743 607.088 62.4035 621.861 56.2681 640.268 56.2681ZM328.315 22.2407C330.494 22.2407 333.602 22.7251 337.639 23.6939 342.24 24.7433 345.429 25.3488 347.205 25.5103 351.322 26.0754 357.538 26.8423 365.854 27.8111 367.872 27.9725 368.881 28.6587 368.881 29.8696 368.881 33.0988 368.619 37.9829 368.094 44.522 367.569 51.0611 367.307 55.9855 367.307 59.2954 367.307 63.2512 368.477 65.229 370.818 65.229 373.644 65.229 377.923 65.1079 383.654 64.8657 389.386 64.6235 393.705 64.5024 396.611 64.5024 398.387 64.5024 399.275 65.1079 399.275 66.3189 399.275 68.1756 399.074 70.9608 398.67 74.6743 398.266 78.3879 398.065 81.173 398.065 83.0298 398.065 84.9673 398.105 87.7928 398.186 91.5064 398.266 95.2199 398.307 98.0454 398.307 99.9829 398.307 101.678 397.136 102.526 394.795 102.526 393.18 102.526 390.476 102.465 386.682 102.344 382.887 102.223 380.183 102.163 378.568 102.163L369.486 102.163C368.275 102.163 367.67 103.939 367.67 107.491 367.67 109.428 367.67 112.294 367.67 116.088 367.751 119.963 367.791 122.829 367.791 124.686 367.791 131.467 368.558 136.15 370.092 138.733 372.272 142.204 376.55 143.94 382.928 143.94 384.946 143.94 387.832 143.476 391.586 142.547 395.34 141.619 397.984 141.155 399.518 141.155 401.213 141.155 402.061 142.043 402.061 143.819 402.061 146.241 401.758 149.914 401.152 154.838 400.547 159.763 400.244 163.375 400.244 165.676 400.244 167.977 400.002 169.45 399.518 170.096 399.033 170.742 397.701 171.67 395.522 172.881 385.108 178.613 373.563 181.479 360.889 181.479 337.558 181.479 325.893 172.558 325.893 154.717 325.893 149.389 326.095 141.377 326.498 130.68 326.902 119.984 327.104 111.971 327.104 106.643 327.104 103.091 325.045 101.315 320.928 101.315 320.605 101.315 320.08 101.315 319.354 101.315 318.627 101.396 318.102 101.436 317.779 101.436 314.712 101.436 313.178 100.346 313.178 98.1665 313.178 96.8748 313.279 94.897 313.481 92.2329 313.682 89.5689 313.783 87.591 313.783 86.2993 313.783 84.604 313.682 82.0207 313.481 78.5493 313.279 75.078 313.178 72.4946 313.178 70.7993 313.178 69.1848 315.761 68.2967 320.928 68.1353 323.834 68.0545 325.408 67.2472 325.65 65.7134 326.135 62.6457 326.296 57.8019 326.135 51.1821 325.812 40.7681 325.65 35.8032 325.65 36.2876 325.65 26.923 326.538 22.2407 328.315 22.2407ZM438.268 12.6743C444.565 12.6743 450.014 14.5715 454.615 18.3657 459.54 22.4022 462.002 27.5285 462.002 33.7446 462.002 47.7915 454.091 54.8149 438.268 54.8149 431.486 54.8149 425.876 53.0389 421.436 49.4868 416.592 45.6118 414.17 40.3644 414.17 33.7446 414.17 27.4478 416.673 22.2811 421.678 18.2446 426.279 14.5311 431.809 12.6743 438.268 12.6743ZM714.377 9.4048C716.637 9.4048 720.028 9.56627 724.549 9.88918 729.07 10.2121 732.46 10.3736 734.721 10.3736 736.981 10.3736 740.372 10.2121 744.893 9.88918 749.414 9.56627 752.804 9.4048 755.065 9.4048 756.679 9.4048 757.486 19.173 757.486 38.7095 757.486 53.4022 756.154 67.2069 753.49 80.1235 750.261 93.3631 747.072 106.562 743.924 119.721 743.197 122.708 739.968 124.202 734.236 124.202 727.697 124.202 724.065 122.91 723.338 120.327 715.749 94.4126 711.955 79.6795 711.955 76.1275 711.955 72.8176 712.117 67.8931 712.44 61.354 712.762 54.8149 712.924 49.8905 712.924 46.5806 712.924 42.9478 712.803 37.4986 712.561 30.2329 712.318 22.9673 712.197 17.5181 712.197 13.8853 712.197 10.8983 712.924 9.4048 714.377 9.4048ZM48.3107 6.98293C49.2794 6.98293 50.7729 8.35533 52.7911 11.1001L97.9591 72.979C101.996 78.5493 108.091 86.703 116.244 97.4399 118.262 99.9426 119.998 101.194 121.451 101.194 122.501 101.194 123.026 98.0454 123.026 91.7485 123.026 83.272 122.561 70.5168 121.633 53.4829 120.705 36.4491 120.24 23.6535 120.24 15.0962 120.24 12.1092 121.088 10.6157 122.783 10.6157 127.627 10.6157 134.933 10.4139 144.701 10.0103 154.469 9.60661 161.775 9.4048 166.619 9.4048 168.153 9.4048 168.92 10.6561 168.92 13.1587 168.92 22.3618 168.537 36.1867 167.77 54.6333 167.003 73.0799 166.619 86.9452 166.619 96.229L166.619 176.03C166.619 178.209 165.449 179.299 163.108 179.299 161.17 179.299 158.244 179.38 154.328 179.542 150.413 179.703 147.486 179.784 145.549 179.784 143.45 179.784 140.302 179.622 136.104 179.299 131.906 178.976 128.757 178.815 126.658 178.815 125.205 178.815 123.47 177.483 121.451 174.819 115.639 166.988 102.561 149.631 82.2169 122.749 76.6466 115.241 68.1701 104.181 56.7872 89.5689 56.4643 89.0845 55.8589 88.6001 54.9708 88.1157 54.325 88.6808 54.0021 89.5689 54.0021 90.7798 54.0021 100.144 54.2644 114.191 54.7892 132.92 55.3139 151.65 55.5763 165.696 55.5763 175.061 55.5763 177.887 54.4865 179.299 52.3068 179.299L10.4083 179.299C8.06719 179.299 6.89662 178.048 6.89662 175.545 6.89662 166.827 7.32045 153.668 8.1681 136.069 9.01575 118.47 9.43958 105.271 9.43958 96.4712 9.43958 87.1873 9.05612 73.3019 8.2892 54.8149 7.52227 36.328 7.1388 22.4829 7.1388 13.2798 7.1388 11.5038 8.71302 10.6157 11.8615 10.6157 16.5438 10.6157 22.3159 10.2928 29.1779 9.64699 30.7924 9.48552 33.9812 8.9608 38.7443 8.07277 42.7807 7.34621 45.9695 6.98293 48.3107 6.98293Z" stroke="#FFFFFF" stroke-width="3" stroke-linejoin="round" stroke-miterlimit="10" fill-rule="evenodd"/></g></g><path d="M2552.82 1286.56C2559.52 1286.56 2564.99 1288.74 2569.23 1293.1 2573.46 1297.46 2575.58 1303.03 2575.58 1309.81 2575.58 1316.59 2573.48 1322.22 2569.29 1326.7 2565.09 1331.18 2559.6 1333.42 2552.82 1333.42 2545.96 1333.42 2540.45 1331.2 2536.29 1326.76 2532.13 1322.32 2530.05 1316.67 2530.05 1309.81 2530.05 1303.03 2532.15 1297.46 2536.35 1293.1 2540.55 1288.74 2546.04 1286.56 2552.82 1286.56ZM2063.61 1246.6C2057.23 1246.6 2051.98 1249.1 2047.87 1254.11 2043.99 1258.79 2042.05 1264.36 2042.05 1270.82 2042.05 1277.36 2043.99 1282.97 2047.87 1287.65 2051.98 1292.66 2057.23 1295.16 2063.61 1295.16 2069.9 1295.16 2075.11 1292.66 2079.23 1287.65 2083.02 1282.97 2084.92 1277.36 2084.92 1270.82 2084.92 1264.44 2082.94 1258.81 2078.99 1253.93 2075.03 1249.04 2069.9 1246.6 2063.61 1246.6ZM2453.64 1238.37C2448.56 1238.37 2444.36 1240.5 2441.05 1244.78 2437.98 1248.74 2436.45 1253.38 2436.45 1258.71 2436.45 1260.89 2437.58 1261.98 2439.84 1261.98 2445.81 1261.98 2455.1 1261.05 2467.69 1259.19 2470.35 1258.79 2471.69 1258.14 2471.69 1257.26 2471.69 1252.25 2469.91 1247.85 2466.36 1244.06 2462.81 1240.26 2458.57 1238.37 2453.64 1238.37ZM2235.05 1215.12C2237.31 1215.12 2240.76 1215.36 2245.41 1215.84 2250.05 1216.33 2253.54 1216.57 2255.88 1216.57 2258.22 1216.57 2261.73 1216.37 2266.42 1215.96 2271.1 1215.56 2274.61 1215.36 2276.95 1215.36 2278.89 1215.36 2279.86 1216.17 2279.86 1217.78 2279.86 1218.1 2279.78 1218.87 2279.62 1220.08 2277.84 1235.82 2276.95 1254.07 2276.95 1274.81 2276.95 1280.71 2277.07 1289.49 2277.31 1301.15 2277.56 1312.82 2277.68 1321.56 2277.68 1327.37 2277.68 1329.06 2276.67 1330.07 2274.65 1330.4 2271.91 1330.88 2265.73 1331.12 2256.12 1331.12 2246.44 1331.12 2240.22 1330.88 2237.47 1330.4 2235.7 1330.07 2234.61 1329.55 2234.21 1328.82 2234.04 1328.5 2233.96 1327.29 2233.96 1325.19 2233.96 1319.62 2234.08 1311.24 2234.33 1300.06 2234.57 1288.88 2234.69 1280.47 2234.69 1274.81 2234.69 1251.89 2233.8 1233.64 2232.03 1220.08 2231.86 1218.79 2231.78 1217.94 2231.78 1217.54 2231.78 1215.92 2232.87 1215.12 2235.05 1215.12ZM2063.37 1209.18C2081.61 1209.18 2096.38 1214.89 2107.69 1226.32 2118.99 1237.74 2124.64 1252.57 2124.64 1270.82 2124.64 1289.22 2119.01 1304.16 2107.75 1315.62 2096.48 1327.09 2081.69 1332.82 2063.37 1332.82 2045.6 1332.82 2030.99 1327.17 2019.53 1315.87 2008.07 1304.56 2002.33 1290.03 2002.33 1272.27 2002.33 1253.54 2007.82 1238.35 2018.8 1226.68 2029.78 1215.01 2044.64 1209.18 2063.37 1209.18ZM2355.61 1208.09C2367.64 1208.09 2378.21 1210.68 2387.33 1215.84 2389.43 1216.97 2390.48 1218.06 2390.48 1219.11 2390.48 1220.16 2389.27 1224.92 2386.85 1233.4 2384.59 1241.55 2383.12 1246.48 2382.43 1248.17 2381.74 1249.87 2381.04 1250.72 2380.31 1250.72 2380.23 1250.72 2377.79 1250.07 2372.98 1248.78 2368.18 1247.49 2364.29 1246.84 2361.3 1246.84 2354.11 1246.84 2348.38 1249 2344.1 1253.32 2339.82 1257.64 2337.69 1263.39 2337.69 1270.58 2337.69 1278 2340.03 1283.84 2344.71 1288.07 2349.39 1292.31 2355.49 1294.43 2362.99 1294.43 2366.55 1294.43 2370.54 1293.52 2374.98 1291.71 2379.42 1289.89 2381.52 1288.98 2381.28 1288.98 2382.65 1288.98 2384.43 1294.11 2386.61 1304.36 2388.46 1313.73 2389.39 1319.94 2389.39 1323.01 2389.39 1326.08 2384.39 1328.7 2374.38 1330.88 2366.63 1332.58 2360.37 1333.42 2355.61 1333.42 2337.85 1333.42 2323.19 1327.45 2311.65 1315.5 2300.11 1303.55 2294.33 1288.66 2294.33 1270.82 2294.33 1253.14 2300.13 1238.26 2311.71 1226.2 2323.3 1214.13 2337.93 1208.09 2355.61 1208.09ZM2458.37 1207.37C2473.87 1207.37 2487.02 1213.02 2497.84 1224.32 2508.66 1235.62 2514.07 1249.06 2514.07 1264.64 2514.07 1272.8 2511.44 1277.44 2506.2 1278.57 2505.31 1278.73 2496.95 1279.62 2481.13 1281.23 2471.6 1282.28 2457.4 1283.53 2438.51 1284.99 2439.64 1290.23 2443.07 1294.23 2448.8 1296.97 2453.48 1299.24 2458.81 1300.37 2464.78 1300.37 2471.97 1300.37 2479.19 1298.43 2486.46 1294.55 2489.53 1292.62 2492.59 1290.68 2495.66 1288.74 2497.36 1289.55 2500.2 1293.67 2504.2 1301.09 2508.2 1308.52 2510.19 1313.24 2510.19 1315.26 2510.19 1315.83 2509.59 1316.75 2508.38 1318.05 2498.53 1328.62 2483.23 1333.91 2462.48 1333.91 2443.27 1333.91 2427.77 1328.3 2415.98 1317.08 2403.87 1305.69 2397.82 1290.48 2397.82 1271.42 2397.82 1252.86 2403.23 1237.64 2414.04 1225.77 2425.19 1213.5 2439.96 1207.37 2458.37 1207.37ZM2146.41 1173.34C2148.59 1173.34 2151.7 1173.82 2155.74 1174.79 2160.34 1175.84 2163.53 1176.45 2165.3 1176.61 2169.42 1177.17 2175.64 1177.94 2183.95 1178.91 2185.97 1179.07 2186.98 1179.76 2186.98 1180.97 2186.98 1184.2 2186.72 1189.08 2186.19 1195.62 2185.67 1202.16 2185.4 1207.08 2185.4 1210.39 2185.4 1214.35 2186.57 1216.33 2188.92 1216.33 2191.74 1216.33 2196.02 1216.21 2201.75 1215.96 2207.48 1215.72 2211.8 1215.6 2214.71 1215.6 2216.49 1215.6 2217.37 1216.21 2217.37 1217.42 2217.37 1219.27 2217.17 1222.06 2216.77 1225.77 2216.36 1229.49 2216.16 1232.27 2216.16 1234.13 2216.16 1236.06 2216.2 1238.89 2216.28 1242.6 2216.36 1246.32 2216.4 1249.14 2216.4 1251.08 2216.4 1252.78 2215.23 1253.62 2212.89 1253.62 2211.28 1253.62 2208.57 1253.56 2204.78 1253.44 2200.99 1253.32 2198.28 1253.26 2196.67 1253.26L2187.58 1253.26C2186.37 1253.26 2185.77 1255.04 2185.77 1258.59 2185.77 1260.53 2185.77 1263.39 2185.77 1267.19 2185.85 1271.06 2185.89 1273.93 2185.89 1275.78 2185.89 1282.56 2186.66 1287.25 2188.19 1289.83 2190.37 1293.3 2194.65 1295.04 2201.03 1295.04 2203.04 1295.04 2205.93 1294.57 2209.68 1293.64 2213.44 1292.72 2216.08 1292.25 2217.62 1292.25 2219.31 1292.25 2220.16 1293.14 2220.16 1294.92 2220.16 1297.34 2219.86 1301.01 2219.25 1305.94 2218.64 1310.86 2218.34 1314.47 2218.34 1316.77 2218.34 1319.07 2218.1 1320.55 2217.62 1321.19 2217.13 1321.84 2215.8 1322.77 2213.62 1323.98 2203.21 1329.71 2191.66 1332.58 2178.99 1332.58 2155.66 1332.58 2143.99 1323.66 2143.99 1305.81 2143.99 1300.49 2144.19 1292.47 2144.6 1281.78 2145 1271.08 2145.2 1263.07 2145.2 1257.74 2145.2 1254.19 2143.14 1252.41 2139.03 1252.41 2138.7 1252.41 2138.18 1252.41 2137.45 1252.41 2136.72 1252.49 2136.2 1252.53 2135.88 1252.53 2132.81 1252.53 2131.28 1251.44 2131.28 1249.26 2131.28 1247.97 2131.38 1245.99 2131.58 1243.33 2131.78 1240.67 2131.88 1238.69 2131.88 1237.4 2131.88 1235.7 2131.78 1233.12 2131.58 1229.65 2131.38 1226.18 2131.28 1223.59 2131.28 1221.9 2131.28 1220.28 2133.86 1219.39 2139.03 1219.23 2141.93 1219.15 2143.51 1218.34 2143.75 1216.81 2144.23 1213.74 2144.39 1208.9 2144.23 1202.28 2143.91 1191.87 2143.75 1186.9 2143.75 1187.39 2143.75 1178.02 2144.64 1173.34 2146.41 1173.34ZM2256.37 1163.77C2262.66 1163.77 2268.11 1165.67 2272.71 1169.46 2277.64 1173.5 2280.1 1178.63 2280.1 1184.84 2280.1 1198.89 2272.19 1205.91 2256.37 1205.91 2249.58 1205.91 2243.97 1204.14 2239.53 1200.58 2234.69 1196.71 2232.27 1191.46 2232.27 1184.84 2232.27 1178.55 2234.77 1173.38 2239.78 1169.34 2244.38 1165.63 2249.91 1163.77 2256.37 1163.77ZM2532.47 1160.5C2534.73 1160.5 2538.13 1160.66 2542.65 1160.99 2547.17 1161.31 2550.56 1161.47 2552.82 1161.47 2555.08 1161.47 2558.47 1161.31 2562.99 1160.99 2567.51 1160.66 2570.9 1160.5 2573.16 1160.5 2574.78 1160.5 2575.58 1170.27 2575.58 1189.81 2575.58 1204.5 2574.25 1218.3 2571.59 1231.22 2568.36 1244.46 2565.17 1257.66 2562.02 1270.82 2561.29 1273.81 2558.07 1275.3 2552.33 1275.3 2545.79 1275.3 2542.16 1274.01 2541.44 1271.42 2533.85 1245.51 2530.05 1230.78 2530.05 1227.22 2530.05 1223.92 2530.21 1218.99 2530.54 1212.45 2530.86 1205.91 2531.02 1200.99 2531.02 1197.68 2531.02 1194.05 2530.9 1188.6 2530.66 1181.33 2530.42 1174.06 2530.29 1168.62 2530.29 1164.98 2530.29 1162 2531.02 1160.5 2532.47 1160.5ZM1866.41 1158.08C1867.38 1158.08 1868.87 1159.45 1870.89 1162.2L1916.06 1224.08C1920.09 1229.65 1926.19 1237.8 1934.34 1248.54 1936.36 1251.04 1938.1 1252.29 1939.55 1252.29 1940.6 1252.29 1941.12 1249.14 1941.12 1242.85 1941.12 1234.37 1940.66 1221.61 1939.73 1204.58 1938.8 1187.55 1938.34 1174.75 1938.34 1166.19 1938.34 1163.21 1939.19 1161.71 1940.88 1161.71 1945.72 1161.71 1953.03 1161.51 1962.8 1161.11 1972.57 1160.7 1979.87 1160.5 1984.72 1160.5 1986.25 1160.5 1987.02 1161.75 1987.02 1164.26 1987.02 1173.46 1986.63 1187.28 1985.87 1205.73 1985.1 1224.18 1984.72 1238.04 1984.72 1247.33L1984.72 1327.13C1984.72 1329.31 1983.55 1330.4 1981.21 1330.4 1979.27 1330.4 1976.34 1330.48 1972.43 1330.64 1968.51 1330.8 1965.58 1330.88 1963.65 1330.88 1961.55 1330.88 1958.4 1330.72 1954.2 1330.4 1950 1330.07 1946.85 1329.91 1944.76 1329.91 1943.3 1329.91 1941.57 1328.58 1939.55 1325.92 1933.74 1318.09 1920.66 1300.73 1900.31 1273.85 1894.74 1266.34 1886.27 1255.28 1874.88 1240.67 1874.56 1240.18 1873.96 1239.7 1873.07 1239.21 1872.42 1239.78 1872.1 1240.67 1872.1 1241.88 1872.1 1251.24 1872.36 1265.29 1872.89 1284.02 1873.41 1302.75 1873.67 1316.79 1873.67 1326.16 1873.67 1328.98 1872.58 1330.4 1870.4 1330.4L1828.51 1330.4C1826.16 1330.4 1824.99 1329.15 1824.99 1326.64 1824.99 1317.92 1825.42 1304.77 1826.27 1287.17 1827.11 1269.57 1827.54 1256.37 1827.54 1247.57 1827.54 1238.28 1827.15 1224.4 1826.39 1205.91 1825.62 1187.43 1825.24 1173.58 1825.24 1164.38 1825.24 1162.6 1826.81 1161.71 1829.96 1161.71 1834.64 1161.71 1840.41 1161.39 1847.28 1160.74 1848.89 1160.58 1852.08 1160.06 1856.84 1159.17 1860.88 1158.44 1864.07 1158.08 1866.41 1158.08Z" stroke="#FFFFFF" stroke-width="3" stroke-linejoin="round" stroke-miterlimit="10" fill-rule="evenodd"/><text fill="#000000" fill-opacity="0" font-family="Arial,Arial_MSFontService,sans-serif" font-size="175.828" x="1824.99" y="1311.93">Notice!</text></g></svg>